<?xml version="1.0" encoding="utf-8"?>
<!-- Generator: Adobe Illustrator 24.0.1, SVG Export Plug-In . SVG Version: 6.00 Build 0)  -->
<svg version="1.1" id="Capa_1" xmlns="http://www.w3.org/2000/svg" xmlns:xlink="http://www.w3.org/1999/xlink" x="0px" y="0px"
	 viewBox="0 0 512 512" style="enable-background:new 0 0 512 512;" xml:space="preserve">
<style type="text/css">
	.st0{fill:#574319;}
</style>
<g>
	<g>
		<path class="st0" d="M256,0C166,0,91,72.5,91,165c0,35.2,10.6,66.6,30.9,96l121.5,189.6c5.9,9.2,19.4,9.2,25.3,0l122-190.2
			c19.9-28.1,30.4-61.1,30.4-95.4C421,74,347,0,256,0z M256,240c-41.4,0-75-33.6-75-75s33.6-75,75-75s75,33.6,75,75
			S297.4,240,256,240z"/>
	</g>
</g>
<g>
	<g>
		<path class="st0" d="M373.3,344.7l-75.5,118.1c-19.6,30.5-64,30.4-83.5,0l-75.7-118.1C72,360.1,31,388.3,31,422
			c0,58.5,115.9,90,225,90s225-31.5,225-90C481,388.3,439.9,360.1,373.3,344.7z"/>
	</g>
</g>
</svg>
